<svg xmlns="http://www.w3.org/2000/svg">
  <symbol id="dress-code-maple-leaf" viewBox="0 0 730 726">
    <path fill="currentColor" d="M 366 66 L 369 88 L 379 119 L 390 129 L 409 130 L 410 150 L 414 165 L 420 178 L 430 189 L 437 194 L 448 198 L 466 199 L 483 195 L 496 187 L 502 181 L 482 237 L 472 273 L 469 304 L 470 310 L 475 315 L 490 315 L 498 311 L 510 299 L 520 284 L 539 285 L 552 281 L 566 268 L 572 255 L 578 257 L 600 257 L 619 250 L 636 238 L 659 213 L 647 235 L 628 258 L 622 268 L 622 280 L 631 287 L 639 288 L 630 309 L 630 328 L 632 333 L 637 338 L 644 339 L 630 351 L 619 368 L 614 384 L 614 405 L 618 413 L 623 418 L 631 422 L 674 424 L 697 428 L 670 433 L 640 445 L 627 453 L 617 463 L 604 472 L 556 499 L 530 518 L 529 533 L 538 552 L 552 568 L 575 584 L 556 581 L 442 582 L 428 580 L 406 573 L 394 566 L 383 556 L 374 541 L 368 541 L 367 557 L 370 631 L 376 683 L 371 695 L 368 698 L 368 596 L 366 545 L 364 539 L 357 540 L 353 550 L 339 565 L 321 575 L 304 580 L 290 582 L 218 580 L 174 581 L 156 584 L 175 572 L 193 553 L 200 541 L 203 531 L 203 521 L 201 517 L 182 503 L 126 471 L 97 448 L 62 433 L 44 429 L 35 429 L 38 427 L 58 424 L 97 423 L 107 419 L 115 411 L 118 403 L 118 386 L 113 369 L 105 355 L 88 339 L 96 337 L 102 328 L 102 311 L 93 288 L 100 287 L 109 281 L 110 269 L 105 260 L 82 231 L 73 213 L 92 235 L 109 248 L 121 254 L 132 257 L 154 257 L 159 255 L 166 269 L 176 279 L 192 285 L 212 284 L 224 302 L 235 312 L 246 316 L 259 314 L 262 310 L 263 303 L 262 284 L 259 269 L 249 234 L 231 183 L 249 195 L 266 199 L 287 197 L 302 189 L 309 182 L 317 167 L 321 153 L 322 130 L 341 129 L 353 118 L 360 99 L 366 66 Z"/>
    <image href="assets/maple-leaf-lines.png" width="730" height="726" preserveAspectRatio="xMidYMid meet"/>
  </symbol>
</svg>